<svg width="162" height="21" viewBox="0 0 162 21" fill="none" xmlns="http://www.w3.org/2000/svg">
<path d="M49.5051 12.6098H54.9676V19.7168H59.693V2.30851H54.9676V8.75391H49.5051V2.2896H44.7797V19.7168H49.5051V12.6098ZM5.84265 5.88089V19.7168H13.5356C15.6336 19.7168 17.3348 18.0157 17.3348 15.9176H10.5491V2.30851H5.84265C1.13617 2.30851 0.115494 1.0043 0.115494 1.0043V2.68654C0.096593 4.06635 1.4197 5.88089 5.84265 5.88089ZM23.9125 2.30851H19.1871V19.7168H23.9125V2.30851ZM42.2469 9.18865H37.2002C34.6296 9.03743 34.0059 8.65941 34.0059 8.65941V10.0959C34.0059 11.4001 34.932 13.0257 37.8429 13.4415V15.8987C37.2569 16.031 35.9338 16.1066 35.2345 16.1066C33.9492 16.1066 32.9852 15.6719 32.3047 14.8213C31.6243 13.9707 31.2841 12.7232 31.2841 11.0977C31.2841 9.43437 31.6621 8.16796 32.4181 7.26069C33.1742 6.37232 34.2327 5.91869 35.6125 5.91869C35.9527 5.91869 36.2741 5.93759 36.5954 5.9565C39.4873 6.27782 40.9994 5.03032 41.7555 2.74324C41.7555 2.74324 40.9427 2.87555 38.6745 2.36521C37.7106 2.13839 36.671 2.06278 35.5747 2.06278C32.6828 2.06278 30.4335 2.83775 28.8269 4.40657C27.2202 5.9754 26.4264 8.16797 26.4264 10.9654C26.4264 13.8573 27.1635 16.0688 28.6189 17.6187C30.0933 19.1686 32.1535 19.9625 34.8375 19.9625C37.2758 19.9625 40.1867 19.6223 42.228 18.9229V9.18865H42.2469Z" fill="white"/>
<path d="M95.02 10.5826V10.4692C95.8327 10.2802 96.4943 9.82655 97.0046 9.1272C97.4961 8.42784 97.7607 7.59617 97.7607 6.6322C97.7607 5.13898 97.1936 4.0616 96.0406 3.34334C94.8876 2.64398 91.8067 2.28485 89.444 2.28485H82.356V5.87613V19.712H91.4665C93.5078 19.712 95.1334 19.2584 96.3242 18.3511C97.5149 17.4439 98.1009 16.1964 98.1009 14.6086C98.1009 13.5501 97.8552 12.6807 97.3827 12.0191C96.8723 11.3576 96.0974 10.8661 95.02 10.5826ZM91.0317 16.0829H87.0435V5.85724H89.3684C90.8427 5.85724 92.903 6.34867 92.903 7.33155C92.903 7.8797 92.714 8.29553 92.3548 8.57905C92.2225 8.67356 91.9201 8.74917 91.5421 8.82478C90.4269 9.01379 89.2928 8.95708 88.1965 8.71136H88.1776C88.1776 8.71136 87.7618 12.5484 91.4476 12.5484C92.0335 12.5484 92.4304 12.7563 92.6384 12.9264C93.0353 13.2288 93.2243 13.6825 93.2243 14.2684C93.2432 15.4592 92.506 16.0829 91.0317 16.0829ZM142.217 9.31621C140.648 8.59795 139.042 8.10652 138.682 7.8419C138.323 7.57728 138.153 7.27485 138.153 6.91572C138.153 6.59439 138.285 6.32977 138.569 6.12185C138.853 5.91394 139.287 5.80054 139.911 5.80054C140.27 5.80054 140.799 5.85723 141.366 5.97064C143.238 6.29197 145.166 4.62864 145.071 2.30376C143.937 2.68179 141.858 2.03913 140.043 2.03913C138.002 2.03913 136.395 2.49276 135.223 3.38113C134.052 4.2695 133.466 5.53591 133.466 7.14254C133.466 7.99311 133.598 8.74916 133.881 9.37291C134.146 9.99666 134.581 10.5637 135.148 11.0362C135.715 11.5277 136.565 12.0191 137.7 12.5295C138.947 13.0965 140.384 13.4745 140.667 13.6447C140.951 13.8337 141.159 14.0038 141.291 14.1928C141.423 14.3629 141.48 14.5708 141.48 14.8165C141.48 15.1946 141.31 15.5159 140.988 15.7427C140.667 15.9884 140.157 16.1019 139.457 16.1019C138.777 16.1019 137.567 15.7616 136.641 15.5348C133.428 14.7409 132.539 17.2359 132.539 19.0694C135.167 19.2017 136.66 19.92 139.363 19.92C140.762 19.92 141.971 19.6931 142.992 19.2206C144.032 18.7481 144.807 18.1054 145.355 17.2737C145.903 16.4421 146.167 15.4781 146.167 14.4007C146.167 13.2288 145.884 12.2459 145.298 11.471C144.769 10.7338 143.729 9.99667 142.217 9.31621ZM155.259 2.30376H146.3V6.15966H150.553V19.712H155.259V6.14076C159.682 6.14076 160.986 4.04269 160.986 2.66288L161.308 0.980652C161.326 0.980652 159.966 2.30376 155.259 2.30376ZM107.344 1.7178C104.584 1.7178 102.807 2.51167 101.352 4.08049C99.8966 5.66822 99.4996 7.9553 99.4996 10.9417C99.4996 13.966 99.8966 16.272 101.352 17.8597C102.807 19.4474 104.584 20.2413 107.306 20.2413C110.084 20.2413 111.861 19.4474 113.298 17.8786C114.734 16.3098 115.131 14.0038 115.131 10.9795C115.131 7.9364 114.753 5.64932 113.317 4.08049C111.88 2.51167 110.122 1.7178 107.344 1.7178ZM107.325 16.1964C104.981 16.1964 104.471 14.4574 104.471 10.9795C104.471 7.46386 105 5.70603 107.344 5.70603C108.497 5.70603 110.179 6.08405 110.179 10.9795C110.179 15.7805 108.516 16.1964 107.325 16.1964ZM124.393 1.7178C121.633 1.7178 119.857 2.51167 118.401 4.08049C116.946 5.66822 116.549 7.9553 116.549 10.9417C116.549 13.966 116.946 16.272 118.401 17.8597C119.857 19.4474 121.633 20.2413 124.355 20.2413C127.134 20.2413 128.91 19.4474 130.347 17.8786C131.783 16.3098 132.18 14.0038 132.18 10.9795C132.18 7.9364 131.802 5.64932 130.366 4.08049C128.929 2.51167 127.153 1.7178 124.393 1.7178ZM124.374 16.1964C122.03 16.1964 121.52 14.4574 121.52 10.9795C121.52 7.46386 122.049 5.70603 124.393 5.70603C125.546 5.70603 127.228 6.08405 127.228 10.9795C127.228 15.7805 125.565 16.1964 124.374 16.1964Z" fill="white"/>
<path d="M70.845 2.24701H66.0818H61.9045V6.10292H66.0818V19.6553H66.1385H70.7882H70.845V6.10292H75.0222V2.24701H70.845Z" fill="white"/>
</svg>
